<svg xmlns="http://www.w3.org/2000/svg" viewBox="0 0 96 96" role="img" aria-label="仓鼠图标">
  <rect width="96" height="96" rx="24" fill="#FFF3A8"/>
  <circle cx="26" cy="30" r="14" fill="#E8B35D" stroke="#273043" stroke-width="4"/>
  <circle cx="70" cy="30" r="14" fill="#E8B35D" stroke="#273043" stroke-width="4"/>
  <circle cx="26" cy="30" r="7" fill="#FFE4B8"/>
  <circle cx="70" cy="30" r="7" fill="#FFE4B8"/>
  <circle cx="48" cy="52" r="34" fill="#F4C46C" stroke="#273043" stroke-width="4"/>
  <path d="M21 48c6-16 17-25 27-25s21 9 27 25c-8-5-18-8-27-8s-19 3-27 8Z" fill="#FFE7A8"/>
  <circle cx="33" cy="52" r="5" fill="#273043"/>
  <circle cx="63" cy="52" r="5" fill="#273043"/>
  <circle cx="30" cy="62" r="8" fill="#FFB8C8" opacity=".78"/>
  <circle cx="66" cy="62" r="8" fill="#FFB8C8" opacity=".78"/>
  <ellipse cx="48" cy="62" rx="13" ry="11" fill="#FFF4D0" stroke="#273043" stroke-width="3"/>
  <path d="M44 58c0-3 8-3 8 0 0 2-2 4-4 4s-4-2-4-4Z" fill="#E9788F"/>
  <path d="M48 62v6" fill="none" stroke="#273043" stroke-width="3" stroke-linecap="round"/>
  <path d="M40 68c3 4 6 4 8 0 2 4 5 4 8 0" fill="none" stroke="#273043" stroke-width="3" stroke-linecap="round"/>
  <path d="M17 60h18M18 69h17M61 60h18M61 69h17" fill="none" stroke="#273043" stroke-width="3" stroke-linecap="round"/>
</svg>
